<?xml version="1.0" encoding="UTF-8"?>
<svg width="88px" height="106px" viewBox="0 0 88 106" version="1.1" xmlns="http://www.w3.org/2000/svg" xmlns:xlink="http://www.w3.org/1999/xlink">
    <!-- Generator: Sketch 43.2 (39069) - http://www.bohemiancoding.com/sketch -->
    <title>Artboard</title>
    <desc>Created with Sketch.</desc>
    <defs></defs>
    <g id="Page-1" stroke="none" stroke-width="1" fill="none" fill-rule="evenodd">
        <g id="Artboard" fill-rule="nonzero" fill="#D5D5D5">
            <path d="M74.1422561,-0.18 C73.2365091,-0.18 72.5022561,0.55425301 72.5022561,1.46 L72.5022561,76.79 L16.2622561,0.49 C15.9538084,0.0694973659 15.4637558,-0.179241445 14.9422561,-0.18 L1.84225613,-0.18 C0.936509137,-0.18 0.202256126,0.55425301 0.202256126,1.46 L0.202256126,104.29 C0.22928575,105.176163 0.955681426,105.880412 1.84225613,105.88 L14.6422561,105.88 C15.5480031,105.88 16.2822561,105.145747 16.2822561,104.24 L16.2822561,27.24 L73.2822561,105.24 C73.5948935,105.654246 74.0832766,105.898438 74.6022561,105.9 L86.9322561,105.9 C87.8380031,105.9 88.5722561,105.165747 88.5722561,104.26 L88.5722561,1.46 C88.5722561,0.55425301 87.8380031,-0.18 86.9322561,-0.18 L74.1422561,-0.18 Z" id="Shape"></path>
        </g>
    </g>
</svg>